# xmcd
#
# Track frame offsets:
#	150
#	16486
#	33964
#	50704
#	64589
#	83899
#	100313
#	115633
#	127748
#	147139
#	165294
#	181793
#	200685
#	218884
#	237863
#	251536
#	264862
#	282132
#	294628
#
# Disc length: 4179 seconds
#
# Revision: 3
# Processed by: cddbd v1.5.2PL0 Copyright (c) Steve Scherf et al.
# Submitted via: audiograbber 1.83.01
#
DISCID=03105113
DTITLE=Various Artist - CDX 281
DYEAR=2001
DGENRE=Country
TTITLE0=Sawyer Brown - Circles
TTITLE1=Trick Pony - Every other memory
TTITLE2=Brian McComas - I could never love you enough
TTITLE3=Jessica Andrews - Karma
TTITLE4=Eilleen Shania Twain - The Heart is Blind
TTITLE5=Tommy Shane Steiner - What if she's an angel
TTITLE6=K C Williams - Basic Love
TTITLE7=Phil Calkins - Daddy's little girl
TTITLE8=Cerrito - Table for two (sung in English and Spanish)
TTITLE9=South 65 - A Random act of senseless kindness
TTITLE10=Brian Glenn - A Soldier's christmas
TTITLE11=Barry Preston - Let's Roll
TTITLE12=Chris Gray - Red, white and blue
TTITLE13=Rick Gerard - Thank you old flag of mine
TTITLE14=Stephanie Starr - The day the world changed
TTITLE15=Rickey Garrard - The ole' flag
TTITLE16=Robbin Thompson - Wouldn't wanna be you
TTITLE17=Sammy Kershaw - Sad City
TTITLE18=4 Sisters and A Cousin - Auld Lang Syne
EXTD=
EXTT0=
EXTT1=
EXTT2=
EXTT3=
EXTT4=
EXTT5=
EXTT6=
EXTT7=
EXTT8=
EXTT9=
EXTT10=
EXTT11=
EXTT12=
EXTT13=
EXTT14=
EXTT15=
EXTT16=
EXTT17=
EXTT18=
PLAYORDER=
